<svg width="45" height="45" viewBox="0 0 45 45" fill="none" xmlns="http://www.w3.org/2000/svg">
<path d="M21.2799 4.52692C21.6647 3.48715 23.1353 3.48716 23.5201 4.52692L27.8543 16.2401C27.9753 16.567 28.233 16.8247 28.5599 16.9457L40.2731 21.2799C41.3128 21.6647 41.3128 23.1353 40.2731 23.5201L28.5599 27.8543C28.233 27.9753 27.9753 28.233 27.8543 28.5599L23.5201 40.2731C23.1353 41.3128 21.6647 41.3128 21.2799 40.2731L16.9457 28.5599C16.8247 28.233 16.567 27.9753 16.2401 27.8543L4.52692 23.5201C3.48715 23.1353 3.48716 21.6647 4.52692 21.2799L16.2401 16.9457C16.567 16.8247 16.8247 16.567 16.9457 16.2401L21.2799 4.52692Z" fill="white"/>
<path d="M34.777 5.29256C34.8625 5.06157 35.1892 5.06157 35.2747 5.29256L36.2375 7.89468C36.2644 7.96731 36.3217 8.02456 36.3943 8.05144L38.9964 9.01431C39.2274 9.09978 39.2274 9.42649 38.9964 9.51196L36.3943 10.4748C36.3217 10.5017 36.2644 10.559 36.2375 10.6316L35.2747 13.2337C35.1892 13.4647 34.8625 13.4647 34.777 13.2337L33.8141 10.6316C33.7873 10.559 33.73 10.5017 33.6574 10.4748L31.0553 9.51196C30.8243 9.42649 30.8243 9.09978 31.0553 9.01431L33.6574 8.05144C33.73 8.02456 33.7873 7.96731 33.8141 7.89468L34.777 5.29256Z" fill="white"/>
</svg>
