<svg width="40" height="40" viewBox="0 0 40 40" fill="none" xmlns="http://www.w3.org/2000/svg">
<path fill-rule="evenodd" clip-rule="evenodd" d="M18.8 37.5C22.3714 37.5 26 36.725 28.9714 35.15L27.7714 32.8C25.3714 34.1 22.3714 34.875 19.1143 34.875C9.88571 34.875 3 29.675 3 20.575C3 9.65 12.2286 2.625 21.8 2.625C31.6571 2.625 36.7143 8.1 36.7143 15.625C36.7143 21.6 32.8857 25.275 29.5714 25.275C26.5714 25.275 25.6857 23.45 26.5714 19.8L28.6571 10.425H25.6571L25.3429 12.225C24.1714 10.65 22.6571 10.15 20.8857 10.15C14.6286 10.15 10.4286 16.125 10.4286 21.1C10.4286 25.275 13.1143 27.625 17 27.625C19.4 27.625 21.7714 26.3 23.5714 24.5C23.8857 26.85 26.2571 28.125 29.2286 28.125C34 28.125 40 23.95 40 15.625C40 6.525 33.1143 0 22.3714 0C10.4571 0 0 8.325 0 20.825C0 31.775 8.34286 37.5 18.8 37.5ZM17.9143 25C15.8286 25 14.0286 23.7 14.0286 20.825C14.0286 17.2 16.7143 12.775 20.9143 12.775C22.4 12.775 23.3143 13.275 24.4857 14.85L23 22.4C21.2 24.225 19.4286 25.025 17.9143 25.025V25Z" fill="white"/>
</svg>
