<svg width="45" height="45" viewBox="0 0 45 45" fill="none" xmlns="http://www.w3.org/2000/svg">
<path d="M26.564 23.541H18.4341C18.1221 23.541 17.8672 23.7959 17.8672 24.1079V39.8008H27.1396V24.1079C27.1353 23.7959 26.8804 23.541 26.564 23.541Z" fill="white"/>
<path d="M26.564 22.8825H18.7461C18.4077 22.8825 18.0825 22.8781 17.7793 23.0715C17.3706 23.3307 17.2036 23.7614 17.2036 24.2228V35.5651C17.2036 36.9538 17.1772 38.3469 17.2036 39.7399V39.8058C17.2036 40.1618 17.5068 40.465 17.8628 40.465H27.1353C27.4912 40.465 27.7944 40.1618 27.7944 39.8058V24.4382C27.7944 24.0866 27.8032 23.7482 27.5923 23.4406C27.3506 23.0846 26.9858 22.9045 26.564 22.8825C26.2212 22.8649 25.8872 23.1989 25.9048 23.5417C25.9224 23.9152 26.1948 24.1833 26.564 24.2009C26.5508 24.2009 26.4629 24.1701 26.5288 24.1965C26.6035 24.2228 26.5068 24.1833 26.5024 24.1789C26.6343 24.28 26.4189 24.0822 26.4805 24.1481C26.5332 24.2009 26.4585 24.1349 26.4717 24.1174C26.4805 24.1042 26.4629 24.236 26.4805 24.1437C26.4805 24.1349 26.4761 24.1042 26.4761 24.1174V24.1569C26.4673 24.2404 26.4761 24.3239 26.4761 24.4074V37.7975C26.4761 38.4523 26.4365 39.1203 26.4761 39.7751V39.8058L27.1353 39.1467H17.8628L18.522 39.8058V24.5436C18.522 24.4206 18.5483 24.2624 18.522 24.1393V24.113C18.522 24.1042 18.5088 24.1701 18.5088 24.1701L18.522 24.1174C18.4868 24.1877 18.4912 24.1921 18.5264 24.1262C18.5044 24.1525 18.3813 24.2624 18.4912 24.1789C18.4736 24.1877 18.4561 24.1965 18.4341 24.2009L18.4868 24.1877C18.3989 24.3019 18.4077 24.1965 18.4253 24.2009H18.5132C19.2471 24.2228 19.9897 24.2009 20.7236 24.2009H26.5552C26.8979 24.2009 27.2319 23.8976 27.2144 23.5417C27.21 23.1813 26.9375 22.8825 26.564 22.8825ZM14.7866 27.9362H5.61963C5.30762 27.9362 5.05273 28.1911 5.05273 28.5031V39.8014H14.7866V27.9362Z" fill="white"/>
<path d="M14.7876 27.277H5.88428C5.68213 27.277 5.47998 27.2726 5.27783 27.3254C4.71533 27.4792 4.39893 28.0109 4.39453 28.569C4.39014 29.0349 4.39453 29.5007 4.39453 29.9665V35.6706C4.39453 37.0241 4.37256 38.3776 4.39453 39.7311V39.7971C4.39453 40.153 4.69775 40.4562 5.05371 40.4562H14.7876C15.1436 40.4562 15.4468 40.153 15.4468 39.7971V27.9318C15.4468 27.5891 15.1436 27.2595 14.7876 27.277C14.4316 27.2946 14.1284 27.5671 14.1284 27.9362V39.8015L14.7876 39.1423H5.05371L5.71289 39.8015V28.8459C5.71289 28.736 5.72168 28.6218 5.71289 28.5119V28.5031C5.71289 28.4855 6.20508 28.1384 5.69971 28.5646C5.7041 28.5558 5.7041 28.5471 5.7085 28.5383C5.72168 28.4899 5.71729 28.5031 5.69092 28.5646C5.77881 28.4416 5.55908 28.6613 5.68213 28.5734C5.5415 28.6745 5.68652 28.5734 5.68213 28.5822C5.58105 28.7009 5.60303 28.591 5.62061 28.5954C5.65137 28.5998 5.68652 28.5954 5.71729 28.5954H10.248C11.7334 28.5954 13.2231 28.613 14.7085 28.5954H14.7876C15.1304 28.5954 15.4644 28.2922 15.4468 27.9362C15.4292 27.5759 15.1567 27.277 14.7876 27.277ZM39.3794 31.4518H30.2124V39.8015H39.9463V32.0187C39.9463 31.7067 39.6914 31.4518 39.3794 31.4518Z" fill="white"/>
<path d="M39.3809 30.793H30.2139C29.8579 30.793 29.5547 31.0962 29.5547 31.4521V39.8018C29.5547 40.1577 29.8579 40.4609 30.2139 40.4609H39.9478C40.3037 40.4609 40.6069 40.1577 40.6069 39.8018V32.5332C40.6069 32.375 40.6113 32.2168 40.6069 32.0542C40.5937 31.3511 40.0796 30.8281 39.3809 30.793C39.0381 30.7754 38.7041 31.1094 38.7217 31.4521C38.7393 31.8257 39.0117 32.0938 39.3809 32.1113C39.3677 32.1113 39.2798 32.0806 39.3457 32.1069C39.4204 32.1333 39.3237 32.0938 39.3193 32.0894C39.4512 32.1904 39.2358 31.9927 39.2974 32.0586C39.3501 32.1113 39.2754 32.0454 39.2886 32.0278C39.2974 32.0146 39.2798 32.1465 39.2974 32.0542C39.3018 32.0322 39.293 32.0146 39.293 32.0278V39.8105L39.9521 39.1514H30.2183L30.8774 39.8105V31.4609L30.2183 32.1201H39.3853C39.728 32.1201 40.062 31.8169 40.0444 31.4609C40.0225 31.0918 39.75 30.793 39.3809 30.793ZM22.5015 5.19922L20.4932 10.2617L14.9824 10.7583L19.2495 14.2695L17.9971 19.5781L22.5015 16.6865L27.0059 19.5781L25.7534 14.2695L30.0205 10.7583L24.5098 10.2617L22.5015 5.19922Z" fill="white"/>
<path d="M21.8629 5.02237C21.274 6.49894 20.6895 7.9755 20.1007 9.45206C20.0172 9.663 19.9337 9.86954 19.8502 10.0805C20.0611 9.91788 20.2721 9.75968 20.4874 9.59708L15.6754 10.0321C15.4425 10.0541 15.214 10.0717 14.981 10.0937C14.7174 10.1156 14.4845 10.2387 14.379 10.498C14.2867 10.7221 14.3131 11.0517 14.5152 11.2187C15.7589 12.2426 17.0025 13.2621 18.2462 14.286C18.4264 14.4355 18.6065 14.5805 18.7867 14.7299C18.7296 14.5146 18.6725 14.3036 18.6153 14.0883C18.2506 15.6396 17.8814 17.1908 17.5167 18.7421C17.464 18.9618 17.4156 19.1772 17.3629 19.3969C17.2354 19.9286 17.8287 20.4648 18.3297 20.1396C19.6436 19.2958 20.9576 18.4521 22.2672 17.6083C22.4561 17.4897 22.6451 17.3666 22.8297 17.248H22.1661C23.4801 18.0917 24.794 18.9355 26.1036 19.7792C26.2926 19.8979 26.4815 20.0209 26.6661 20.1396C27.1715 20.4648 27.7603 19.9286 27.6329 19.3969C27.2682 17.8456 26.899 16.2943 26.5343 14.7431C26.4815 14.5233 26.4332 14.308 26.3805 14.0883C26.3233 14.3036 26.2662 14.5146 26.2091 14.7299C27.4527 13.706 28.6964 12.6864 29.94 11.6625C30.1202 11.5131 30.3004 11.3681 30.4806 11.2187C30.6783 11.0561 30.7135 10.7177 30.6168 10.498C30.5025 10.2431 30.2872 10.1156 30.0147 10.0937L25.2027 9.6586C24.9698 9.63663 24.7413 9.61905 24.5084 9.59708C24.7193 9.75968 24.9303 9.91788 25.1456 10.0805C24.5567 8.60392 23.9723 7.12735 23.3834 5.65079C23.2999 5.43985 23.2164 5.23331 23.1329 5.02237C23.0011 4.69278 22.6935 4.45987 22.3199 4.56095C22.0035 4.64884 21.7267 5.03995 21.8585 5.37394C22.4474 6.8505 23.0318 8.32706 23.6207 9.80362C23.7042 10.0146 23.7877 10.2211 23.8712 10.432C23.9898 10.7265 24.1876 10.8891 24.5084 10.9154L29.3204 11.3505C29.5533 11.3725 29.7818 11.39 30.0147 11.412C29.8609 11.0385 29.7027 10.6606 29.5489 10.287C28.3053 11.3109 27.0616 12.3305 25.818 13.3544C25.6378 13.5038 25.4576 13.6488 25.2774 13.7983C25.0973 13.9477 25.0577 14.2245 25.106 14.4399C25.4708 15.9911 25.8399 17.5424 26.2047 19.0937C26.2574 19.3134 26.3058 19.5287 26.3585 19.7484C26.6793 19.5024 27.0045 19.2519 27.3253 19.0058C26.0113 18.162 24.6974 17.3183 23.3878 16.4745C23.1988 16.3559 23.0099 16.2328 22.8253 16.1142C22.6363 15.9911 22.3507 15.9911 22.1617 16.1142C20.8477 16.9579 19.5338 17.8017 18.2242 18.6454C18.0352 18.7641 17.8463 18.8871 17.6617 19.0058C17.9825 19.2519 18.3077 19.5024 18.6285 19.7484C18.9933 18.1972 19.3624 16.6459 19.7271 15.0946C19.7799 14.8749 19.8282 14.6596 19.881 14.4399C19.9293 14.2245 19.8941 13.9477 19.7096 13.7983C18.4659 12.7743 17.2223 11.7548 15.9786 10.7309C15.7984 10.5815 15.6183 10.4364 15.4381 10.287C15.2843 10.6606 15.1261 11.0385 14.9723 11.412L19.7843 10.977C20.0172 10.955 20.2457 10.9374 20.4786 10.9154C20.7994 10.8847 20.9972 10.7265 21.1158 10.432C21.7047 8.95548 22.2892 7.47892 22.878 6.00235C22.9615 5.79142 23.045 5.58487 23.1285 5.37394C23.256 5.05313 22.9879 4.63565 22.6671 4.56095C22.2935 4.47745 21.9991 4.6796 21.8629 5.02237Z" fill="white"/>
</svg>
