<svg width="39" height="35" viewBox="0 0 39 35" fill="none" xmlns="http://www.w3.org/2000/svg">
<path d="M2.98783 18.0994C1.0723 16.1207 -0.000135407 13.4637 1.28234e-08 10.6969C1.28234e-08 4.78847 4.80133 3.65902e-05 10.725 3.65902e-05C14.352 3.65902e-05 17.5587 1.79378 19.5 4.54347C20.4975 3.13422 21.8145 1.98644 23.3411 1.19604C24.8676 0.405626 26.5594 -0.00446044 28.275 3.65902e-05C34.1987 3.65902e-05 39 4.78847 39 10.6947C39.0001 12.1319 38.7107 13.554 38.1494 14.8747C37.5881 16.1954 36.7666 17.3871 35.7348 18.3772L19.5 35L2.98783 18.0994Z" fill="white"/>
</svg>
